<?xml version="1.0" standalone="no"?>
<!DOCTYPE svg PUBLIC "-//W3C//DTD SVG 20010904//EN"
 "http://www.w3.org/TR/2001/REC-SVG-20010904/DTD/svg10.dtd">
<svg version="1.0" xmlns="http://www.w3.org/2000/svg"
 width="600.000000pt" height="600.000000pt" viewBox="0 0 600.000000 600.000000"
 preserveAspectRatio="xMidYMid meet">

<g transform="translate(0.000000,600.000000) scale(0.100000,-0.100000)"
fill="#000000" stroke="none">
<path d="M3126 5020 c-179 -38 -343 -103 -435 -171 -36 -27 -52 -32 -86 -30
-45 3 -72 -17 -61 -44 3 -9 -1 -18 -9 -21 -19 -8 -29 -42 -16 -58 8 -9 1 -31
-24 -82 -47 -94 -68 -182 -69 -289 -1 -109 7 -152 38 -198 l24 -35 -19 -53
c-39 -113 -13 -222 63 -261 34 -18 36 -22 26 -43 -20 -44 2 -60 96 -69 16 -2
33 -11 39 -22 5 -10 19 -29 30 -41 l20 -23 -74 0 c-91 0 -192 -23 -240 -54
-23 -16 -48 -48 -72 -94 -20 -38 -42 -74 -49 -79 -7 -6 -42 -14 -78 -17 -80
-9 -125 -28 -168 -69 -73 -70 -108 -172 -99 -285 4 -54 10 -70 29 -87 l25 -21
-45 -50 c-101 -111 -256 -333 -317 -454 -81 -162 -107 -273 -135 -577 -19
-219 -37 -323 -85 -513 -47 -187 -66 -294 -71 -405 -7 -167 23 -261 74 -229
12 8 16 23 15 50 -11 240 -6 298 57 569 50 214 66 320 80 515 20 285 48 406
127 565 162 324 434 624 738 814 l86 54 47 -44 c26 -25 97 -93 158 -151 113
-107 194 -163 282 -194 51 -18 78 -15 89 12 8 21 -22 47 -79 68 -62 23 -106
53 -238 166 -130 111 -216 170 -246 170 -12 0 -32 -8 -45 -19 -13 -10 -53 -33
-89 -51 -86 -43 -210 -126 -290 -194 -94 -80 -110 -75 -110 33 0 76 22 147 61
194 41 50 75 66 161 77 89 11 114 29 156 114 34 69 65 97 132 116 53 16 215
33 243 26 14 -3 39 -25 56 -48 27 -37 31 -50 31 -107 0 -63 0 -64 -20 -46 -33
30 -23 3 26 -71 66 -98 134 -174 222 -248 140 -116 175 -127 253 -78 54 35
163 153 226 245 l47 67 -22 39 c-12 21 -22 41 -22 45 0 3 19 15 41 27 l41 21
37 -30 c43 -34 101 -126 101 -160 0 -36 18 -62 44 -62 32 0 153 -124 222 -226
131 -196 212 -450 244 -759 5 -55 17 -212 25 -350 17 -281 31 -397 74 -635 16
-91 34 -210 41 -265 20 -185 20 -184 41 -195 13 -8 25 -7 40 1 21 11 22 16 16
123 -3 69 -22 197 -51 341 -52 269 -60 329 -86 694 -23 313 -33 407 -61 543
-66 326 -223 588 -426 711 -40 25 -53 38 -53 57 -1 64 -68 166 -135 206 l-45
26 48 48 c92 93 128 192 139 375 6 103 8 112 35 144 39 44 48 71 48 142 0 57
1 59 26 59 16 0 24 5 21 13 -2 6 -16 12 -31 12 -19 0 -30 8 -41 30 -9 17 -29
42 -46 56 -22 19 -32 39 -36 68 -5 36 -2 44 21 62 22 18 26 28 26 76 0 38 -7
67 -22 94 -21 38 -21 41 -5 68 9 16 20 49 23 74 6 38 3 48 -17 68 -13 13 -24
28 -25 34 0 5 -2 16 -2 23 -1 6 -8 12 -16 12 -8 0 -16 12 -18 27 -3 25 -8 28
-88 44 -47 9 -137 36 -200 60 -101 37 -127 43 -210 46 -66 2 -122 -3 -184 -17z
m636 -474 c25 -22 28 -32 34 -124 l7 -100 -32 -7 c-17 -3 -44 -4 -61 0 -35 8
-96 -10 -104 -30 -4 -10 3 -12 30 -8 38 6 45 -6 14 -25 -11 -7 -29 -27 -40
-44 -18 -31 -22 -32 -89 -32 -42 -1 -75 -6 -83 -14 -16 -16 -38 -15 -38 2 0
25 -52 78 -94 97 -23 9 -33 18 -23 18 25 1 21 28 -8 47 -36 23 -90 11 -128
-29 -16 -18 -49 -52 -72 -77 -24 -25 -48 -55 -54 -67 -17 -33 -75 -32 -239 3
-21 4 -23 8 -17 52 10 74 46 215 60 238 9 14 32 24 80 33 37 6 100 22 141 35
l73 24 -15 -30 c-19 -37 -5 -58 40 -58 45 0 181 35 253 64 48 20 81 26 140 27
43 0 98 6 123 13 64 19 72 18 102 -8z m38 -273 c0 -10 -4 -14 -8 -8 -4 6 -11
13 -16 18 -5 4 -2 7 7 7 10 0 17 -8 17 -17z m102 -66 c26 -52 22 -157 -7 -201
l-19 -29 -7 29 c-4 16 -10 82 -13 147 -5 106 -4 118 10 106 9 -7 25 -31 36
-52z m-158 22 c19 -22 33 -30 47 -26 19 5 19 1 17 -131 l-3 -137 -42 -3 c-27
-2 -59 4 -87 17 -81 35 -105 124 -60 215 20 38 74 96 90 96 7 0 24 -14 38 -31z
m-426 -6 c66 -49 89 -141 53 -218 -56 -121 -209 -152 -307 -62 -58 53 -59 134
-3 223 30 46 32 48 40 26 9 -24 29 -30 29 -8 0 7 10 26 22 41 20 25 25 27 80
23 38 -3 68 -11 86 -25z m256 -145 l1 -67 -27 6 c-34 7 -36 -3 -4 -28 34 -27
41 -55 22 -84 -21 -32 -44 -31 -91 1 -34 23 -40 24 -53 10 -20 -19 -6 -37 48
-61 61 -27 108 -13 135 41 l21 40 39 -18 c29 -14 55 -18 98 -14 66 5 64 11 48
-129 -14 -117 -43 -185 -108 -256 -66 -71 -124 -107 -202 -125 -76 -18 -131
-17 -231 6 -55 12 -88 16 -95 9 -16 -16 7 -42 61 -69 43 -22 61 -25 160 -25
l112 0 5 -44 c4 -40 1 -50 -30 -90 -49 -66 -182 -199 -203 -206 -11 -3 -32 1
-48 9 -43 22 -197 153 -285 243 l-77 78 40 54 c22 29 40 57 40 61 0 11 -36 52
-146 163 -50 51 -100 110 -112 133 -11 22 -27 46 -35 53 -8 6 -13 21 -10 31 5
17 0 20 -35 20 -29 0 -49 7 -69 24 -26 23 -28 29 -28 103 1 106 25 157 76 161
30 3 43 -4 86 -42 28 -26 56 -46 61 -46 6 0 14 25 17 55 l7 56 72 -7 c39 -4
81 -11 94 -15 13 -5 34 -9 47 -9 22 0 24 -3 19 -30 -22 -108 72 -204 201 -204
131 0 241 114 222 231 -7 43 11 53 92 50 l63 -2 2 -67z"/>
<path d="M3661 4161 c-42 -42 -20 -152 26 -137 43 14 51 106 13 141 -17 15
-20 15 -39 -4z"/>
<path d="M3228 4160 c-36 -22 -34 -121 3 -141 42 -22 69 39 47 106 -14 42 -24
49 -50 35z"/>
<path d="M2550 4012 c0 -5 3 -12 7 -16 4 -4 7 -19 8 -34 0 -22 5 -27 25 -27
14 0 36 -8 49 -17 41 -29 77 7 44 45 -35 38 -133 74 -133 49z"/>
<path d="M3280 3768 c-111 -31 -139 -159 -52 -240 64 -59 143 -72 275 -42 76
17 107 30 119 48 15 23 7 36 -21 36 -29 0 -30 2 -36 58 -4 31 -8 62 -9 67 -2
6 20 17 48 27 l51 16 -65 1 c-36 1 -103 10 -150 21 -95 22 -110 23 -160 8z
m173 -55 c110 -10 86 -28 -55 -42 -68 -7 -131 -14 -140 -17 -28 -8 -22 22 8
45 29 23 68 26 187 14z m-56 -124 c8 -8 17 -8 31 0 11 6 28 11 36 11 17 0 56
-34 56 -49 0 -14 -126 -33 -168 -25 -41 7 -82 29 -82 44 0 22 108 38 127 19z"/>
<path d="M3262 2737 c-7 -61 -17 -362 -24 -669 l-12 -556 -40 -6 c-23 -3 -117
-10 -211 -17 -93 -6 -172 -13 -174 -15 -2 -2 93 -4 211 -4 l216 0 6 -122 c3
-68 10 -235 16 -373 12 -278 19 -360 30 -348 9 9 28 336 37 632 l6 208 96 7
c53 3 122 6 153 6 69 0 88 7 88 30 0 25 -13 27 -115 19 -49 -4 -120 -8 -156
-8 l-66 -1 -6 513 c-4 349 -11 559 -21 661 -8 82 -17 150 -19 152 -2 2 -9 -47
-15 -109z"/>
<path d="M4074 2302 c-30 -505 -26 -585 61 -1015 25 -122 52 -285 61 -362 17
-149 20 -163 48 -179 14 -9 21 -6 38 14 18 22 19 33 13 105 -9 107 -27 211
-80 450 -83 380 -93 470 -104 953 -4 188 -10 344 -13 347 -2 3 -13 -138 -24
-313z"/>
<path d="M2105 1998 c3 -13 9 -120 11 -238 4 -172 -1 -301 -24 -645 -27 -381
-28 -433 -15 -453 18 -30 54 -26 69 8 13 27 52 586 61 865 4 135 2 188 -11
259 -17 89 -71 226 -89 226 -5 0 -6 -10 -2 -22z"/>
<path d="M3690 1478 c0 -41 92 -197 160 -272 39 -43 76 -89 81 -104 6 -14 18
-100 28 -190 19 -167 24 -182 64 -182 36 0 40 38 18 197 -29 203 -40 232 -115
301 -93 87 -135 131 -183 197 -55 74 -53 72 -53 53z"/>
<path d="M2750 1465 c-2 -49 -37 -160 -72 -227 -32 -62 -64 -104 -125 -165
-45 -46 -89 -95 -96 -110 -8 -16 -29 -88 -46 -160 -35 -145 -33 -173 14 -173
36 0 50 30 75 162 24 127 27 133 113 234 73 86 121 171 141 249 18 66 21 162
6 185 -5 8 -10 11 -10 5z"/>
</g>
</svg>
